<?xml version="1.0" encoding="UTF-8"?>
<!--Generator: Apple Native CoreSVG 175.5-->
<!DOCTYPE svg
PUBLIC "-//W3C//DTD SVG 1.1//EN"
       "http://www.w3.org/Graphics/SVG/1.1/DTD/svg11.dtd">
<svg version="1.1" xmlns="http://www.w3.org/2000/svg" xmlns:xlink="http://www.w3.org/1999/xlink" width="3300" height="2200">
 <!--glyph: "uni100281.medium", point size: 100.0, font version: "18.0d12e2", template writer version: "101"-->
 <style>.monochrome-0 {fill:#000000}

.SFSymbolsPreview000000 {fill:#000000;opacity:1.0}
</style>
 <g id="Notes">
  <rect height="2200" id="artboard" style="fill:white;opacity:1" width="3300" x="0" y="0"/>
  <line style="fill:none;stroke:black;opacity:1;stroke-width:0.5;" x1="263" x2="3036" y1="292" y2="292"/>
  <text style="stroke:none;fill:black;font-family:sans-serif;font-size:13;font-weight:bold;" transform="matrix(1 0 0 1 263 322)">Weight/Scale Variations</text>
  <text style="stroke:none;fill:black;font-family:sans-serif;font-size:13;text-anchor:middle;" transform="matrix(1 0 0 1 559.711 322)">Ultralight</text>
  <text style="stroke:none;fill:black;font-family:sans-serif;font-size:13;text-anchor:middle;" transform="matrix(1 0 0 1 856.422 322)">Thin</text>
  <text style="stroke:none;fill:black;font-family:sans-serif;font-size:13;text-anchor:middle;" transform="matrix(1 0 0 1 1153.13 322)">Light</text>
  <text style="stroke:none;fill:black;font-family:sans-serif;font-size:13;text-anchor:middle;" transform="matrix(1 0 0 1 1449.84 322)">Regular</text>
  <text style="stroke:none;fill:black;font-family:sans-serif;font-size:13;text-anchor:middle;" transform="matrix(1 0 0 1 1746.56 322)">Medium</text>
  <text style="stroke:none;fill:black;font-family:sans-serif;font-size:13;text-anchor:middle;" transform="matrix(1 0 0 1 2043.27 322)">Semibold</text>
  <text style="stroke:none;fill:black;font-family:sans-serif;font-size:13;text-anchor:middle;" transform="matrix(1 0 0 1 2339.98 322)">Bold</text>
  <text style="stroke:none;fill:black;font-family:sans-serif;font-size:13;text-anchor:middle;" transform="matrix(1 0 0 1 2636.69 322)">Heavy</text>
  <text style="stroke:none;fill:black;font-family:sans-serif;font-size:13;text-anchor:middle;" transform="matrix(1 0 0 1 2933.4 322)">Black</text>
  <line style="fill:none;stroke:black;opacity:1;stroke-width:0.5;" x1="263" x2="3036" y1="1903" y2="1903"/>
  <g transform="matrix(1 0 0 1 263 1933)">
   <path d="M9.24805 0.830078C13.5547 0.830078 17.1387-2.74414 17.1387-7.05078C17.1387-11.3574 13.5449-14.9316 9.23828-14.9316C4.94141-14.9316 1.36719-11.3574 1.36719-7.05078C1.36719-2.74414 4.95117 0.830078 9.24805 0.830078ZM9.24805-0.654297C5.70312-0.654297 2.87109-3.49609 2.87109-7.05078C2.87109-10.6055 5.69336-13.4473 9.23828-13.4473C12.793-13.4473 15.6445-10.6055 15.6445-7.05078C15.6445-3.49609 12.8027-0.654297 9.24805-0.654297ZM5.6543-7.05078C5.6543-6.62109 5.95703-6.32812 6.40625-6.32812L8.50586-6.32812L8.50586-4.20898C8.50586-3.76953 8.79883-3.4668 9.22852-3.4668C9.67773-3.4668 9.9707-3.76953 9.9707-4.20898L9.9707-6.32812L12.0898-6.32812C12.5293-6.32812 12.832-6.62109 12.832-7.05078C12.832-7.49023 12.5293-7.79297 12.0898-7.79297L9.9707-7.79297L9.9707-9.90234C9.9707-10.3516 9.67773-10.6543 9.22852-10.6543C8.79883-10.6543 8.50586-10.3516 8.50586-9.90234L8.50586-7.79297L6.40625-7.79297C5.95703-7.79297 5.6543-7.49023 5.6543-7.05078Z"/>
  </g>
  <g transform="matrix(1 0 0 1 281.867 1933)">
   <path d="M11.709 2.91016C17.1582 2.91016 21.6699-1.61133 21.6699-7.05078C21.6699-12.5 17.1484-17.0117 11.6992-17.0117C6.25977-17.0117 1.74805-12.5 1.74805-7.05078C1.74805-1.61133 6.26953 2.91016 11.709 2.91016ZM11.709 1.25C7.09961 1.25 3.41797-2.44141 3.41797-7.05078C3.41797-11.6602 7.08984-15.3516 11.6992-15.3516C16.3086-15.3516 20.0098-11.6602 20.0098-7.05078C20.0098-2.44141 16.3184 1.25 11.709 1.25ZM7.17773-7.05078C7.17773-6.57227 7.50977-6.25 8.00781-6.25L10.8789-6.25L10.8789-3.36914C10.8789-2.88086 11.2109-2.53906 11.6895-2.53906C12.1777-2.53906 12.5195-2.87109 12.5195-3.36914L12.5195-6.25L15.4004-6.25C15.8887-6.25 16.2305-6.57227 16.2305-7.05078C16.2305-7.53906 15.8887-7.88086 15.4004-7.88086L12.5195-7.88086L12.5195-10.752C12.5195-11.25 12.1777-11.5918 11.6895-11.5918C11.2109-11.5918 10.8789-11.25 10.8789-10.752L10.8789-7.88086L8.00781-7.88086C7.50977-7.88086 7.17773-7.53906 7.17773-7.05078Z"/>
  </g>
  <g transform="matrix(1 0 0 1 305.646 1933)">
   <path d="M14.9707 5.66406C21.9336 5.66406 27.6953-0.0976562 27.6953-7.05078C27.6953-14.0137 21.9238-19.7754 14.9609-19.7754C8.00781-19.7754 2.25586-14.0137 2.25586-7.05078C2.25586-0.0976562 8.01758 5.66406 14.9707 5.66406ZM14.9707 3.84766C8.93555 3.84766 4.08203-1.01562 4.08203-7.05078C4.08203-13.0957 8.92578-17.9492 14.9609-17.9492C21.0059-17.9492 25.8691-13.0957 25.8691-7.05078C25.8691-1.01562 21.0156 3.84766 14.9707 3.84766ZM9.19922-7.05078C9.19922-6.5332 9.57031-6.17188 10.1172-6.17188L14.0625-6.17188L14.0625-2.2168C14.0625-1.67969 14.4336-1.29883 14.9512-1.29883C15.4883-1.29883 15.8594-1.66992 15.8594-2.2168L15.8594-6.17188L19.8145-6.17188C20.3516-6.17188 20.7324-6.5332 20.7324-7.05078C20.7324-7.59766 20.3613-7.96875 19.8145-7.96875L15.8594-7.96875L15.8594-11.9141C15.8594-12.4609 15.4883-12.8418 14.9512-12.8418C14.4336-12.8418 14.0625-12.4609 14.0625-11.9141L14.0625-7.96875L10.1172-7.96875C9.57031-7.96875 9.19922-7.59766 9.19922-7.05078Z"/>
  </g>
  <text style="stroke:none;fill:black;font-family:sans-serif;font-size:13;font-weight:bold;" transform="matrix(1 0 0 1 263 1953)">Design Variations</text>
  <text style="stroke:none;fill:black;font-family:sans-serif;font-size:13;" transform="matrix(1 0 0 1 263 1971)">Symbols are supported in up to nine weights and three scales.</text>
  <text style="stroke:none;fill:black;font-family:sans-serif;font-size:13;" transform="matrix(1 0 0 1 263 1989)">For optimal layout with text and other symbols, vertically align</text>
  <text style="stroke:none;fill:black;font-family:sans-serif;font-size:13;" transform="matrix(1 0 0 1 263 2007)">symbols with the adjacent text.</text>
  <line style="fill:none;stroke:#00AEEF;stroke-width:0.5;opacity:1.0;" x1="776" x2="776" y1="1919" y2="1933"/>
  <g transform="matrix(1 0 0 1 776 1933)">
   <path d="M3.31055 0.15625C3.82812 0.15625 4.08203-0.0390625 4.26758-0.585938L5.52734-4.0332L11.2891-4.0332L12.5488-0.585938C12.7344-0.0390625 12.9883 0.15625 13.4961 0.15625C14.0137 0.15625 14.3457-0.15625 14.3457-0.644531C14.3457-0.810547 14.3164-0.966797 14.2383-1.17188L9.6582-13.3691C9.43359-13.9648 9.0332-14.2676 8.4082-14.2676C7.80273-14.2676 7.39258-13.9746 7.17773-13.3789L2.59766-1.16211C2.51953-0.957031 2.49023-0.800781 2.49023-0.634766C2.49023-0.146484 2.80273 0.15625 3.31055 0.15625ZM6.00586-5.51758L8.37891-12.0898L8.42773-12.0898L10.8008-5.51758Z"/>
  </g>
  <line style="fill:none;stroke:#00AEEF;stroke-width:0.5;opacity:1.0;" x1="793.197" x2="793.197" y1="1919" y2="1933"/>
  <text style="stroke:none;fill:black;font-family:sans-serif;font-size:13;font-weight:bold;" transform="matrix(1 0 0 1 776 1953)">Margins</text>
  <text style="stroke:none;fill:black;font-family:sans-serif;font-size:13;" transform="matrix(1 0 0 1 776 1971)">Leading and trailing margins on the left and right side of each symbol</text>
  <text style="stroke:none;fill:black;font-family:sans-serif;font-size:13;" transform="matrix(1 0 0 1 776 1989)">can be adjusted by modifying the x-location of the margin guidelines.</text>
  <text style="stroke:none;fill:black;font-family:sans-serif;font-size:13;" transform="matrix(1 0 0 1 776 2007)">Modifications are automatically applied proportionally to all</text>
  <text style="stroke:none;fill:black;font-family:sans-serif;font-size:13;" transform="matrix(1 0 0 1 776 2025)">scales and weights.</text>
  <g transform="matrix(1 0 0 1 1289 1933)">
   <path d="M2.8418 1.86523L4.54102 3.57422C5.40039 4.44336 6.38672 4.38477 7.31445 3.35938L18.0078-8.42773L17.041-9.4043L6.42578 2.27539C6.07422 2.67578 5.74219 2.77344 5.27344 2.30469L4.10156 1.14258C3.63281 0.683594 3.74023 0.341797 4.14062-0.0195312L15.6152-10.8203L14.6387-11.7871L3.04688-0.898438C2.06055 0.0195312 1.98242 0.996094 2.8418 1.86523ZM9.25781-16.3281C8.83789-15.918 8.80859-15.3418 9.04297-14.9512C9.27734-14.5898 9.73633-14.3555 10.3809-14.5215C11.8457-14.8633 13.3691-14.9219 14.7949-13.9844L14.209-12.5293C13.8672-11.6992 14.043-11.1133 14.5801-10.5664L16.875-8.25195C17.3633-7.76367 17.7734-7.74414 18.3398-7.8418L19.4043-8.03711L20.0684-7.36328L20.0293-6.80664C19.9902-6.30859 20.1172-5.92773 20.6055-5.44922L21.3672-4.70703C21.8457-4.22852 22.4609-4.19922 22.9297-4.66797L25.8398-7.58789C26.3086-8.05664 26.2891-8.65234 25.8105-9.13086L25.0391-9.89258C24.5605-10.3711 24.1895-10.5273 23.7109-10.4883L23.1348-10.4395L22.4902-11.0742L22.7344-12.1973C22.8613-12.7637 22.7051-13.2031 22.1191-13.7891L19.9219-15.9766C16.582-19.2969 12.1484-19.2188 9.25781-16.3281ZM10.752-15.957C13.1836-17.7344 16.4746-17.4316 18.7012-15.2051L21.1328-12.793C21.3672-12.5586 21.4062-12.373 21.3379-12.0312L21.0156-10.5469L22.5195-9.0625L23.5059-9.12109C23.7598-9.13086 23.8379-9.11133 24.0332-8.91602L24.6094-8.33984L22.168-5.89844L21.5918-6.47461C21.3965-6.66992 21.3672-6.74805 21.377-7.01172L21.4453-7.98828L19.9512-9.47266L18.4277-9.21875C18.1055-9.15039 17.959-9.17969 17.7148-9.41406L15.7129-11.416C15.459-11.6504 15.4297-11.8164 15.5859-12.1875L16.4648-14.2773C14.9023-15.7324 12.8711-16.3574 10.8398-15.7617C10.6836-15.7227 10.625-15.8496 10.752-15.957Z"/>
  </g>
  <text style="stroke:none;fill:black;font-family:sans-serif;font-size:13;font-weight:bold;" transform="matrix(1 0 0 1 1289 1953)">Exporting</text>
  <text style="stroke:none;fill:black;font-family:sans-serif;font-size:13;" transform="matrix(1 0 0 1 1289 1971)">Symbols should be outlined when exporting to ensure the</text>
  <text style="stroke:none;fill:black;font-family:sans-serif;font-size:13;" transform="matrix(1 0 0 1 1289 1989)">design is preserved when submitting to Xcode.</text>
  <text id="template-version" style="stroke:none;fill:black;font-family:sans-serif;font-size:13;text-anchor:end;" transform="matrix(1 0 0 1 3036 1933)">Template v.4.0</text>
  <text style="stroke:none;fill:black;font-family:sans-serif;font-size:13;text-anchor:end;" transform="matrix(1 0 0 1 3036 1951)">Requires Xcode 14 or greater</text>
  <text id="descriptive-name" style="stroke:none;fill:black;font-family:sans-serif;font-size:13;text-anchor:end;" transform="matrix(1 0 0 1 3036 1969)">Generated from hand.thumbsdown</text>
  <text style="stroke:none;fill:black;font-family:sans-serif;font-size:13;text-anchor:end;" transform="matrix(1 0 0 1 3036 1987)">Typeset at 100 points</text>
  <text style="stroke:none;fill:black;font-family:sans-serif;font-size:13;" transform="matrix(1 0 0 1 263 726)">Small</text>
  <text style="stroke:none;fill:black;font-family:sans-serif;font-size:13;" transform="matrix(1 0 0 1 263 1156)">Medium</text>
  <text style="stroke:none;fill:black;font-family:sans-serif;font-size:13;" transform="matrix(1 0 0 1 263 1586)">Large</text>
 </g>
 <g id="Guides">
  <g id="H-reference" style="fill:#27AAE1;stroke:none;" transform="matrix(1 0 0 1 339 696)">
   <path d="M0.993654 0L3.63775 0L29.3281-67.1323L30.0303-67.1323L30.0303-70.459L28.1226-70.459ZM11.6885-24.4799L46.9815-24.4799L46.2315-26.7285L12.4385-26.7285ZM55.1196 0L57.7637 0L30.6382-70.459L29.4326-70.459L29.4326-67.1323Z"/>
  </g>
  <line id="Baseline-S" style="fill:none;stroke:#27AAE1;opacity:1;stroke-width:0.5;" x1="263" x2="3036" y1="696" y2="696"/>
  <line id="Capline-S" style="fill:none;stroke:#27AAE1;opacity:1;stroke-width:0.5;" x1="263" x2="3036" y1="625.541" y2="625.541"/>
  <g id="H-reference" style="fill:#27AAE1;stroke:none;" transform="matrix(1 0 0 1 339 1126)">
   <path d="M0.993654 0L3.63775 0L29.3281-67.1323L30.0303-67.1323L30.0303-70.459L28.1226-70.459ZM11.6885-24.4799L46.9815-24.4799L46.2315-26.7285L12.4385-26.7285ZM55.1196 0L57.7637 0L30.6382-70.459L29.4326-70.459L29.4326-67.1323Z"/>
  </g>
  <line id="Baseline-M" style="fill:none;stroke:#27AAE1;opacity:1;stroke-width:0.5;" x1="263" x2="3036" y1="1126" y2="1126"/>
  <line id="Capline-M" style="fill:none;stroke:#27AAE1;opacity:1;stroke-width:0.5;" x1="263" x2="3036" y1="1055.54" y2="1055.54"/>
  <g id="H-reference" style="fill:#27AAE1;stroke:none;" transform="matrix(1 0 0 1 339 1556)">
   <path d="M0.993654 0L3.63775 0L29.3281-67.1323L30.0303-67.1323L30.0303-70.459L28.1226-70.459ZM11.6885-24.4799L46.9815-24.4799L46.2315-26.7285L12.4385-26.7285ZM55.1196 0L57.7637 0L30.6382-70.459L29.4326-70.459L29.4326-67.1323Z"/>
  </g>
  <line id="Baseline-L" style="fill:none;stroke:#27AAE1;opacity:1;stroke-width:0.5;" x1="263" x2="3036" y1="1556" y2="1556"/>
  <line id="Capline-L" style="fill:none;stroke:#27AAE1;opacity:1;stroke-width:0.5;" x1="263" x2="3036" y1="1485.54" y2="1485.54"/>
  <line id="left-margin-Ultralight-S" style="fill:none;stroke:#00AEEF;stroke-width:0.5;opacity:1.0;" x1="520.058" x2="520.058" y1="600.785" y2="720.121"/>
  <line id="right-margin-Ultralight-S" style="fill:none;stroke:#00AEEF;stroke-width:0.5;opacity:1.0;" x1="599.364" x2="599.364" y1="600.785" y2="720.121"/>
  <line id="left-margin-Regular-S" style="fill:none;stroke:#00AEEF;stroke-width:0.5;opacity:1.0;" x1="1402.68" x2="1402.68" y1="600.785" y2="720.121"/>
  <line id="right-margin-Regular-S" style="fill:none;stroke:#00AEEF;stroke-width:0.5;opacity:1.0;" x1="1497.01" x2="1497.01" y1="600.785" y2="720.121"/>
  <line id="left-margin-Black-S" style="fill:none;stroke:#00AEEF;stroke-width:0.5;opacity:1.0;" x1="2879.98" x2="2879.98" y1="600.785" y2="720.121"/>
  <line id="right-margin-Black-S" style="fill:none;stroke:#00AEEF;stroke-width:0.5;opacity:1.0;" x1="2986.82" x2="2986.82" y1="600.785" y2="720.121"/>
 </g>
 <g id="Symbols">
  <g id="Black-S" transform="matrix(1 0 0 1 2879.98 696)">
   <path class="monochrome-0 SFSymbolsPreview000000" d="M100.049-50.0977C100.049-66.4551 90.0391-79.0527 74.6094-79.0527L62.2559-79.0527C56.6406-81.543 50.4395-82.8125 44.0918-82.8125L38.5254-82.8125C32.6172-82.8125 27.8809-82.4219 24.9512-81.6406C17.9199-79.9316 13.1836-74.3652 13.1836-67.9199C13.1836-67.3828 13.2324-66.8945 13.3789-66.3574C10.7422-63.8184 9.27734-60.4004 9.27734-56.6895C9.27734-55.2734 9.52148-53.9551 9.91211-52.7832C8.20312-50.5371 7.27539-47.7051 7.27539-44.6777C7.27539-42.7246 7.66602-40.9668 8.34961-39.4043C7.32422-37.3535 6.78711-34.8633 6.78711-32.1289C6.78711-24.3164 12.4023-18.6035 20.166-18.6035L33.2031-18.6035C33.4961-18.6035 33.7891-18.4082 33.5938-17.9199C32.4219-14.8926 27.6855-6.44531 27.6855 1.31836C27.6855 8.93555 33.252 14.6484 40.6738 14.6484C45.9961 14.6484 49.9023 11.8164 53.125 5.61523C58.3496-4.58984 65.2832-13.1348 71.2891-20.9473L76.123-20.9473C90.7715-20.9473 100.049-33.4961 100.049-50.0977ZM69.043-49.3164C69.043-41.8945 67.4316-37.1582 62.3047-30.2246C56.3965-22.2656 48.0957-12.5 42.1387-0.585938C41.9434-0.195312 41.6992 0 41.2598 0C40.7227 0 40.4785-0.439453 40.4785-0.927734C40.4785-4.19922 46.7773-14.0625 46.7773-21.1914C46.7773-27.0996 42.4805-31.3965 35.3516-31.3965L21.1426-31.3965C20.2148-31.3965 19.5801-31.9824 19.5801-32.7637C19.5801-33.252 19.7754-33.6914 20.2148-34.2285C22.6562-36.8164 23.0469-41.3086 20.752-43.5059C20.3613-43.9453 20.166-44.3359 20.166-44.7266C20.166-45.166 20.459-45.6055 20.9961-45.9473C23.877-47.9004 24.6582-51.8555 23.1445-55.0293C22.9004-55.5176 22.8027-56.0059 22.8027-56.3965C22.8027-57.2266 23.291-57.9102 24.0723-58.3984C26.9531-60.0586 27.8809-64.1113 26.709-66.9922C26.5625-67.2363 26.5137-67.4805 26.5625-67.7246C26.5625-68.3594 27.0508-68.9453 28.5645-69.2871C30.7129-69.7754 34.375-70.0684 40.8203-70.0195L43.9941-69.9707C58.9844-69.8242 69.043-61.7188 69.043-49.3164ZM87.8418-50.0977C87.8418-41.2598 84.4238-34.7656 79.4434-33.3984C79.248-33.3496 79.0039-33.3008 78.8086-33.252C80.9082-38.2812 81.8848-43.5059 81.8848-49.8047C81.8848-56.25 80.0293-62.3535 76.3672-67.7246C76.416-67.7246 76.709-67.6758 76.9043-67.627C83.3008-66.2109 87.8418-59.4727 87.8418-50.0977Z"/>
  </g>
  <g id="Regular-S" transform="matrix(1 0 0 1 1402.68 696)">
   <path class="monochrome-0 SFSymbolsPreview000000" d="M87.5-50.9766C87.5-63.7207 79.1992-74.5117 69.0918-74.5117L56.543-74.5117C51.4648-77.1973 45.3613-78.8086 38.5254-78.8086L33.252-78.8086C28.5645-78.8086 24.4629-78.5156 21.7285-77.832C16.2598-76.5137 12.8418-72.6562 12.8418-67.8711C12.8418-66.9922 12.9395-66.1133 13.1836-65.332C10.6445-63.2812 9.22852-60.4004 9.22852-57.2266C9.22852-55.7617 9.47266-54.2969 9.96094-53.0273C8.25195-51.123 7.32422-48.5352 7.32422-45.8008C7.32422-44.0918 7.71484-42.2363 8.39844-40.8203C7.42188-39.209 6.83594-37.1094 6.83594-34.8633C6.83594-28.9551 11.4258-24.3164 17.334-24.3164L31.7383-24.3164C32.2266-24.3164 32.5684-24.1211 32.5684-23.584C32.5684-19.6777 26.1719-10.1074 26.1719-2.29492C26.1719 3.17383 29.9805 7.12891 35.3027 7.12891C39.209 7.12891 41.7969 5.12695 44.3359 0.292969C48.877-8.39844 54.7852-17.041 63.3789-27.2949L70.5078-27.2949C79.9316-27.2949 87.5-37.9883 87.5-50.9766ZM64.6973-50.6836C64.6973-42.5781 62.8906-37.4512 57.8125-30.6152C52.1484-23.0469 44.2383-13.9648 38.623-2.68555C37.207 0.0976562 36.3281 0.732422 35.0098 0.732422C33.6426 0.732422 32.6172-0.341797 32.6172-2.29492C32.6172-8.39844 39.0137-17.627 39.0137-23.584C39.0137-28.0762 35.3516-30.7617 30.7617-30.7617L17.334-30.7617C14.9902-30.7617 13.2812-32.4707 13.2812-34.8633C13.2812-36.6699 13.8672-37.7441 15.4297-39.3555C16.0156-39.8926 16.0645-40.5762 15.625-41.3086C14.3066-43.3105 13.7695-44.3359 13.7695-45.8008C13.7695-47.5098 14.5996-48.9258 16.3574-50.3906C17.2852-51.0742 17.627-52.0508 17.1387-53.1738C16.1133-55.127 15.6738-55.8594 15.6738-57.2266C15.6738-59.1797 16.9434-60.6445 19.7754-62.1094C20.6055-62.5977 20.752-63.2812 20.4102-64.0137C19.4336-66.6016 19.3359-66.8945 19.3359-67.8711C19.3359-69.5312 20.5566-70.8984 23.2422-71.582C25.4395-72.168 29.0039-72.4121 33.252-72.4121L37.9883-72.4121C54.0527-72.3633 64.6973-63.2812 64.6973-50.6836ZM81.0547-50.9766C81.0547-41.5527 76.0254-33.7402 70.5078-33.7402C69.5312-33.7402 68.5059-33.7402 67.4805-33.7402C70.0195-38.7695 71.1426-44.2383 71.1426-50.5859C71.1426-57.373 68.8477-63.3301 64.6973-68.0176C66.1621-68.0176 67.627-68.0176 69.0918-68.0176C75.4395-68.0176 81.0547-60.1562 81.0547-50.9766Z"/>
  </g>
  <g id="Ultralight-S" transform="matrix(1 0 0 1 520.058 696)">
   <path class="monochrome-0 SFSymbolsPreview000000" d="M72.4694-45.9361C72.4694-56.773 65.3492-65.2481 57.2398-65.2481L46.5528-65.2481C42.6099-67.2071 37.7325-68.4097 32.3497-68.4097L27.8028-68.4097C23.6602-68.4097 20.3306-68.2076 18.0957-67.6148C14.4434-66.6143 12.1606-64.3008 12.1606-61.105C12.1606-59.9537 12.4399-58.9839 12.9111-57.9756C10.4175-56.6968 8.95606-54.4063 8.95606-51.7774C8.95606-50.0855 9.38184-48.5298 10.1426-47.4873C8.38818-46.4912 7.27881-44.1758 7.27881-41.7139C7.27881-39.9141 7.85107-38.104 8.76172-37.1421C7.5581-36.1211 6.83594-34.2486 6.83594-32.1387C6.83594-28.2285 9.88185-25.0884 13.7466-25.0884L25.6534-25.0884C28.0489-25.0884 29.4805-23.9849 29.4805-22.2217C29.4805-18.043 23.8106-9.78955 23.8106-3.52099C23.8106-0.00485778 26.2115 2.49711 29.5811 2.49711C32.1251 2.49711 33.7139 1.13089 35.481-2.24998C39.795-10.6689 42.7516-14.1802 52.1173-26.4321L58.5196-26.4321C66.0362-26.4321 72.4694-34.8096 72.4694-45.9361ZM56.6143-46.0518C56.6143-38.6275 54.9439-33.8638 50.2745-27.709C45.2916-20.958 38.4712-13.1021 33.4917-3.23046C32.1211-0.492671 31.1968 0.323734 29.5606 0.323734C27.376 0.323734 25.9874-1.15917 25.9874-3.52099C25.9874-9.12499 31.6119-17.3545 31.6119-22.2217C31.6119-25.3062 29.1758-27.2652 25.6304-27.2652L13.7466-27.2652C11.085-27.2652 9.01273-29.4282 9.01273-32.1387C9.01273-33.7637 9.46244-34.9741 10.3438-35.6773C11.3384-36.4868 11.4781-37.6245 10.5391-38.4478C9.90189-38.9966 9.4556-40.2491 9.4556-41.7139C9.4556-43.5137 10.2857-45.1114 11.4986-45.8496C12.4717-46.4424 12.8589-47.3736 12.1436-48.542C11.5269-49.3599 11.1328-50.4102 11.1328-51.7774C11.1328-53.7305 12.2662-55.377 14.3262-56.2969C15.2017-56.7398 15.6206-57.5142 14.961-58.5645C14.4839-59.4722 14.3409-60.2193 14.3409-61.105C14.3409-63.2193 15.834-64.8589 18.6558-65.5425C20.626-66.0376 23.8272-66.2818 27.8028-66.2364L32.3121-66.2364C46.6963-66.0967 56.6143-57.8321 56.6143-46.0518ZM70.2926-45.9361C70.2926-35.9673 64.7184-28.6089 58.5196-28.6089C56.8619-28.6089 55.2916-28.6089 53.6305-28.6089C57.3502-34.1831 58.7911-39.1524 58.7911-46.045C58.7911-53.1045 55.6334-59.107 50.1207-63.0679C52.4938-63.0679 54.8668-63.0679 57.2398-63.0679C64.1778-63.0679 70.2926-55.5699 70.2926-45.9361Z"/>
  </g>
 </g>
</svg>
